<mxfile host="app.diagrams.net" agent="Mozilla/5.0 (Macintosh; Intel Mac OS X 10_15_7) AppleWebKit/537.36 (KHTML, like Gecko) Chrome/140.0.0.0 Safari/537.36" version="28.2.1" pages="5">
  <diagram name="LO01_LO" id="vaG0hLY4OaV0uLAfgkjR">
    <mxGraphModel dx="3904" dy="2656" grid="1" gridSize="10" guides="1" tooltips="1" connect="1" arrows="1" fold="1" page="1" pageScale="1" pageWidth="827" pageHeight="1169" math="0" shadow="0">
      <root>
        <mxCell id="0" />
        <mxCell id="1" parent="0" />
        <mxCell id="1tXnaxAAtDH_t2Y7-DmL-4" value="" style="edgeStyle=orthogonalEdgeStyle;rounded=0;orthogonalLoop=1;jettySize=auto;html=1;" edge="1" parent="1" source="1tXnaxAAtDH_t2Y7-DmL-2" target="1tXnaxAAtDH_t2Y7-DmL-3">
          <mxGeometry relative="1" as="geometry">
            <Array as="points">
              <mxPoint x="820" y="260" />
              <mxPoint x="310" y="260" />
            </Array>
          </mxGeometry>
        </mxCell>
        <mxCell id="1tXnaxAAtDH_t2Y7-DmL-8" value="" style="edgeStyle=orthogonalEdgeStyle;rounded=0;orthogonalLoop=1;jettySize=auto;html=1;" edge="1" parent="1" source="1tXnaxAAtDH_t2Y7-DmL-2" target="1tXnaxAAtDH_t2Y7-DmL-5">
          <mxGeometry relative="1" as="geometry">
            <Array as="points">
              <mxPoint x="820" y="260" />
              <mxPoint x="1390" y="260" />
            </Array>
          </mxGeometry>
        </mxCell>
        <mxCell id="1tXnaxAAtDH_t2Y7-DmL-10" value="" style="edgeStyle=orthogonalEdgeStyle;rounded=0;orthogonalLoop=1;jettySize=auto;html=1;" edge="1" parent="1" source="1tXnaxAAtDH_t2Y7-DmL-2" target="1tXnaxAAtDH_t2Y7-DmL-9">
          <mxGeometry relative="1" as="geometry">
            <Array as="points">
              <mxPoint x="820" y="300" />
              <mxPoint x="820" y="300" />
            </Array>
          </mxGeometry>
        </mxCell>
        <mxCell id="1tXnaxAAtDH_t2Y7-DmL-2" value="div" style="rounded=0;whiteSpace=wrap;html=1;" vertex="1" parent="1">
          <mxGeometry x="760" y="170" width="120" height="60" as="geometry" />
        </mxCell>
        <mxCell id="1tXnaxAAtDH_t2Y7-DmL-14" value="" style="edgeStyle=orthogonalEdgeStyle;rounded=0;orthogonalLoop=1;jettySize=auto;html=1;exitX=0.5;exitY=1;exitDx=0;exitDy=0;" edge="1" parent="1" source="1tXnaxAAtDH_t2Y7-DmL-3" target="1tXnaxAAtDH_t2Y7-DmL-13">
          <mxGeometry relative="1" as="geometry">
            <mxPoint x="310.0666666666666" y="400" as="sourcePoint" />
            <Array as="points">
              <mxPoint x="310" y="400" />
              <mxPoint x="390" y="400" />
            </Array>
          </mxGeometry>
        </mxCell>
        <mxCell id="1tXnaxAAtDH_t2Y7-DmL-15" style="edgeStyle=orthogonalEdgeStyle;rounded=0;orthogonalLoop=1;jettySize=auto;html=1;exitX=0.5;exitY=1;exitDx=0;exitDy=0;" edge="1" parent="1" source="1tXnaxAAtDH_t2Y7-DmL-3" target="1tXnaxAAtDH_t2Y7-DmL-11">
          <mxGeometry relative="1" as="geometry">
            <mxPoint x="310.0666666666666" y="400" as="sourcePoint" />
            <Array as="points">
              <mxPoint x="310" y="400" />
              <mxPoint x="230" y="400" />
            </Array>
          </mxGeometry>
        </mxCell>
        <mxCell id="1tXnaxAAtDH_t2Y7-DmL-3" value="div" style="rounded=0;whiteSpace=wrap;html=1;" vertex="1" parent="1">
          <mxGeometry x="250" y="320" width="120" height="60" as="geometry" />
        </mxCell>
        <mxCell id="1tXnaxAAtDH_t2Y7-DmL-23" value="" style="edgeStyle=orthogonalEdgeStyle;rounded=0;orthogonalLoop=1;jettySize=auto;html=1;" edge="1" parent="1" source="1tXnaxAAtDH_t2Y7-DmL-5" target="1tXnaxAAtDH_t2Y7-DmL-22">
          <mxGeometry relative="1" as="geometry">
            <Array as="points">
              <mxPoint x="1390" y="410" />
              <mxPoint x="1220" y="410" />
            </Array>
          </mxGeometry>
        </mxCell>
        <mxCell id="1tXnaxAAtDH_t2Y7-DmL-25" value="" style="edgeStyle=orthogonalEdgeStyle;rounded=0;orthogonalLoop=1;jettySize=auto;html=1;" edge="1" parent="1" source="1tXnaxAAtDH_t2Y7-DmL-5" target="1tXnaxAAtDH_t2Y7-DmL-24">
          <mxGeometry relative="1" as="geometry">
            <Array as="points">
              <mxPoint x="1390" y="410" />
              <mxPoint x="1560" y="410" />
            </Array>
          </mxGeometry>
        </mxCell>
        <mxCell id="1tXnaxAAtDH_t2Y7-DmL-27" value="" style="edgeStyle=orthogonalEdgeStyle;rounded=0;orthogonalLoop=1;jettySize=auto;html=1;" edge="1" parent="1" source="1tXnaxAAtDH_t2Y7-DmL-5" target="1tXnaxAAtDH_t2Y7-DmL-26">
          <mxGeometry relative="1" as="geometry" />
        </mxCell>
        <mxCell id="1tXnaxAAtDH_t2Y7-DmL-5" value="div" style="rounded=0;whiteSpace=wrap;html=1;" vertex="1" parent="1">
          <mxGeometry x="1330" y="320" width="120" height="60" as="geometry" />
        </mxCell>
        <mxCell id="1tXnaxAAtDH_t2Y7-DmL-17" value="" style="edgeStyle=orthogonalEdgeStyle;rounded=0;orthogonalLoop=1;jettySize=auto;html=1;" edge="1" parent="1" source="1tXnaxAAtDH_t2Y7-DmL-9" target="1tXnaxAAtDH_t2Y7-DmL-16">
          <mxGeometry relative="1" as="geometry">
            <Array as="points">
              <mxPoint x="819.5" y="400" />
              <mxPoint x="673.5" y="400" />
            </Array>
          </mxGeometry>
        </mxCell>
        <mxCell id="1tXnaxAAtDH_t2Y7-DmL-19" value="" style="edgeStyle=orthogonalEdgeStyle;rounded=0;orthogonalLoop=1;jettySize=auto;html=1;" edge="1" parent="1" source="1tXnaxAAtDH_t2Y7-DmL-9" target="1tXnaxAAtDH_t2Y7-DmL-18">
          <mxGeometry relative="1" as="geometry">
            <Array as="points">
              <mxPoint x="819.5" y="400" />
              <mxPoint x="966.5" y="400" />
            </Array>
          </mxGeometry>
        </mxCell>
        <mxCell id="1tXnaxAAtDH_t2Y7-DmL-21" value="" style="edgeStyle=orthogonalEdgeStyle;rounded=0;orthogonalLoop=1;jettySize=auto;html=1;" edge="1" parent="1" source="1tXnaxAAtDH_t2Y7-DmL-9" target="1tXnaxAAtDH_t2Y7-DmL-20">
          <mxGeometry relative="1" as="geometry" />
        </mxCell>
        <mxCell id="1tXnaxAAtDH_t2Y7-DmL-9" value="div" style="rounded=0;whiteSpace=wrap;html=1;" vertex="1" parent="1">
          <mxGeometry x="759.5" y="320" width="120" height="60" as="geometry" />
        </mxCell>
        <mxCell id="1tXnaxAAtDH_t2Y7-DmL-11" value="Logo PNG" style="rounded=0;whiteSpace=wrap;html=1;" vertex="1" parent="1">
          <mxGeometry x="170" y="460" width="120" height="60" as="geometry" />
        </mxCell>
        <mxCell id="1tXnaxAAtDH_t2Y7-DmL-13" value="System Name" style="rounded=0;whiteSpace=wrap;html=1;" vertex="1" parent="1">
          <mxGeometry x="330" y="460" width="120" height="60" as="geometry" />
        </mxCell>
        <mxCell id="1tXnaxAAtDH_t2Y7-DmL-16" value="Id Input" style="rounded=0;whiteSpace=wrap;html=1;" vertex="1" parent="1">
          <mxGeometry x="613.5" y="460" width="120" height="60" as="geometry" />
        </mxCell>
        <mxCell id="1tXnaxAAtDH_t2Y7-DmL-18" value="Button" style="rounded=0;whiteSpace=wrap;html=1;" vertex="1" parent="1">
          <mxGeometry x="906.5" y="460" width="120" height="60" as="geometry" />
        </mxCell>
        <mxCell id="1tXnaxAAtDH_t2Y7-DmL-20" value="Pw Input" style="rounded=0;whiteSpace=wrap;html=1;" vertex="1" parent="1">
          <mxGeometry x="759.5" y="460" width="120" height="60" as="geometry" />
        </mxCell>
        <mxCell id="1tXnaxAAtDH_t2Y7-DmL-22" value="Text Button" style="rounded=0;whiteSpace=wrap;html=1;" vertex="1" parent="1">
          <mxGeometry x="1160" y="460" width="120" height="60" as="geometry" />
        </mxCell>
        <mxCell id="1tXnaxAAtDH_t2Y7-DmL-24" value="Text Button" style="rounded=0;whiteSpace=wrap;html=1;" vertex="1" parent="1">
          <mxGeometry x="1500" y="460" width="120" height="60" as="geometry" />
        </mxCell>
        <mxCell id="1tXnaxAAtDH_t2Y7-DmL-26" value="Text Button" style="rounded=0;whiteSpace=wrap;html=1;" vertex="1" parent="1">
          <mxGeometry x="1330" y="460" width="120" height="60" as="geometry" />
        </mxCell>
      </root>
    </mxGraphModel>
  </diagram>
  <diagram id="GsI2wGou8TvzDoLhzG2-" name="LO02_FI">
    <mxGraphModel dx="3267" dy="1660" grid="1" gridSize="10" guides="1" tooltips="1" connect="1" arrows="1" fold="1" page="1" pageScale="1" pageWidth="827" pageHeight="1169" math="0" shadow="0">
      <root>
        <mxCell id="0" />
        <mxCell id="1" parent="0" />
        <mxCell id="V92QkYxYrTkiTQMc3pKq-3" value="" style="edgeStyle=orthogonalEdgeStyle;rounded=0;orthogonalLoop=1;jettySize=auto;html=1;exitX=0.5;exitY=1;exitDx=0;exitDy=0;" edge="1" parent="1" source="V92QkYxYrTkiTQMc3pKq-1" target="V92QkYxYrTkiTQMc3pKq-2">
          <mxGeometry relative="1" as="geometry">
            <mxPoint x="200" y="120" as="sourcePoint" />
            <Array as="points">
              <mxPoint x="210" y="160" />
              <mxPoint x="-120" y="160" />
            </Array>
          </mxGeometry>
        </mxCell>
        <mxCell id="V92QkYxYrTkiTQMc3pKq-6" value="" style="edgeStyle=orthogonalEdgeStyle;rounded=0;orthogonalLoop=1;jettySize=auto;html=1;" edge="1" parent="1" source="V92QkYxYrTkiTQMc3pKq-1" target="V92QkYxYrTkiTQMc3pKq-4">
          <mxGeometry relative="1" as="geometry">
            <Array as="points">
              <mxPoint x="210" y="160" />
              <mxPoint x="590" y="160" />
            </Array>
          </mxGeometry>
        </mxCell>
        <mxCell id="V92QkYxYrTkiTQMc3pKq-1" value="div" style="rounded=0;whiteSpace=wrap;html=1;" vertex="1" parent="1">
          <mxGeometry x="150" y="50" width="120" height="60" as="geometry" />
        </mxCell>
        <mxCell id="V92QkYxYrTkiTQMc3pKq-2" value="Title" style="rounded=0;whiteSpace=wrap;html=1;" vertex="1" parent="1">
          <mxGeometry x="-180" y="220" width="120" height="60" as="geometry" />
        </mxCell>
        <mxCell id="V92QkYxYrTkiTQMc3pKq-13" value="" style="edgeStyle=orthogonalEdgeStyle;rounded=0;orthogonalLoop=1;jettySize=auto;html=1;" edge="1" parent="1" source="V92QkYxYrTkiTQMc3pKq-4" target="V92QkYxYrTkiTQMc3pKq-12">
          <mxGeometry relative="1" as="geometry">
            <Array as="points">
              <mxPoint x="590" y="320" />
              <mxPoint x="330" y="320" />
            </Array>
          </mxGeometry>
        </mxCell>
        <mxCell id="V92QkYxYrTkiTQMc3pKq-19" value="" style="edgeStyle=orthogonalEdgeStyle;rounded=0;orthogonalLoop=1;jettySize=auto;html=1;" edge="1" parent="1" source="V92QkYxYrTkiTQMc3pKq-4" target="V92QkYxYrTkiTQMc3pKq-18">
          <mxGeometry relative="1" as="geometry">
            <Array as="points">
              <mxPoint x="590" y="320" />
              <mxPoint x="1470" y="320" />
            </Array>
          </mxGeometry>
        </mxCell>
        <mxCell id="V92QkYxYrTkiTQMc3pKq-20" value="" style="edgeStyle=orthogonalEdgeStyle;rounded=0;orthogonalLoop=1;jettySize=auto;html=1;entryX=0.5;entryY=0;entryDx=0;entryDy=0;" edge="1" parent="1" source="V92QkYxYrTkiTQMc3pKq-4" target="V92QkYxYrTkiTQMc3pKq-32">
          <mxGeometry relative="1" as="geometry">
            <mxPoint x="490" y="350" as="targetPoint" />
            <Array as="points">
              <mxPoint x="590" y="320" />
              <mxPoint x="690" y="320" />
            </Array>
          </mxGeometry>
        </mxCell>
        <mxCell id="V92QkYxYrTkiTQMc3pKq-22" value="" style="edgeStyle=orthogonalEdgeStyle;rounded=0;orthogonalLoop=1;jettySize=auto;html=1;" edge="1" parent="1" target="V92QkYxYrTkiTQMc3pKq-21">
          <mxGeometry relative="1" as="geometry">
            <mxPoint x="590" y="281" as="sourcePoint" />
            <Array as="points">
              <mxPoint x="590" y="320" />
              <mxPoint x="1140" y="320" />
            </Array>
          </mxGeometry>
        </mxCell>
        <mxCell id="V92QkYxYrTkiTQMc3pKq-4" value="div" style="rounded=0;whiteSpace=wrap;html=1;" vertex="1" parent="1">
          <mxGeometry x="530" y="220" width="120" height="60" as="geometry" />
        </mxCell>
        <mxCell id="V92QkYxYrTkiTQMc3pKq-24" value="" style="edgeStyle=orthogonalEdgeStyle;rounded=0;orthogonalLoop=1;jettySize=auto;html=1;" edge="1" parent="1" source="V92QkYxYrTkiTQMc3pKq-12" target="V92QkYxYrTkiTQMc3pKq-23">
          <mxGeometry relative="1" as="geometry" />
        </mxCell>
        <mxCell id="V92QkYxYrTkiTQMc3pKq-26" value="" style="edgeStyle=orthogonalEdgeStyle;rounded=0;orthogonalLoop=1;jettySize=auto;html=1;" edge="1" parent="1" source="V92QkYxYrTkiTQMc3pKq-12" target="V92QkYxYrTkiTQMc3pKq-23">
          <mxGeometry relative="1" as="geometry" />
        </mxCell>
        <mxCell id="V92QkYxYrTkiTQMc3pKq-28" value="" style="edgeStyle=orthogonalEdgeStyle;rounded=0;orthogonalLoop=1;jettySize=auto;html=1;" edge="1" parent="1" source="V92QkYxYrTkiTQMc3pKq-12" target="V92QkYxYrTkiTQMc3pKq-27">
          <mxGeometry relative="1" as="geometry" />
        </mxCell>
        <mxCell id="V92QkYxYrTkiTQMc3pKq-12" value="div" style="rounded=0;whiteSpace=wrap;html=1;" vertex="1" parent="1">
          <mxGeometry x="270" y="351" width="120" height="60" as="geometry" />
        </mxCell>
        <mxCell id="V92QkYxYrTkiTQMc3pKq-18" value="Button" style="rounded=0;whiteSpace=wrap;html=1;" vertex="1" parent="1">
          <mxGeometry x="1410" y="350" width="120" height="60" as="geometry" />
        </mxCell>
        <mxCell id="V92QkYxYrTkiTQMc3pKq-36" value="" style="edgeStyle=orthogonalEdgeStyle;rounded=0;orthogonalLoop=1;jettySize=auto;html=1;" edge="1" parent="1" target="V92QkYxYrTkiTQMc3pKq-35">
          <mxGeometry relative="1" as="geometry">
            <mxPoint x="1140" y="450" as="sourcePoint" />
          </mxGeometry>
        </mxCell>
        <mxCell id="V92QkYxYrTkiTQMc3pKq-40" value="" style="edgeStyle=orthogonalEdgeStyle;rounded=0;orthogonalLoop=1;jettySize=auto;html=1;" edge="1" parent="1" source="V92QkYxYrTkiTQMc3pKq-21" target="V92QkYxYrTkiTQMc3pKq-39">
          <mxGeometry relative="1" as="geometry" />
        </mxCell>
        <mxCell id="V92QkYxYrTkiTQMc3pKq-21" value="div" style="rounded=0;whiteSpace=wrap;html=1;" vertex="1" parent="1">
          <mxGeometry x="1080" y="350" width="120" height="60" as="geometry" />
        </mxCell>
        <mxCell id="V92QkYxYrTkiTQMc3pKq-23" value="Label" style="rounded=0;whiteSpace=wrap;html=1;" vertex="1" parent="1">
          <mxGeometry x="170" y="490" width="120" height="60" as="geometry" />
        </mxCell>
        <mxCell id="V92QkYxYrTkiTQMc3pKq-27" value="Input" style="rounded=0;whiteSpace=wrap;html=1;" vertex="1" parent="1">
          <mxGeometry x="370" y="490" width="120" height="60" as="geometry" />
        </mxCell>
        <mxCell id="V92QkYxYrTkiTQMc3pKq-29" value="" style="edgeStyle=orthogonalEdgeStyle;rounded=0;orthogonalLoop=1;jettySize=auto;html=1;" edge="1" parent="1" source="V92QkYxYrTkiTQMc3pKq-32" target="V92QkYxYrTkiTQMc3pKq-33">
          <mxGeometry relative="1" as="geometry" />
        </mxCell>
        <mxCell id="V92QkYxYrTkiTQMc3pKq-30" value="" style="edgeStyle=orthogonalEdgeStyle;rounded=0;orthogonalLoop=1;jettySize=auto;html=1;" edge="1" parent="1" source="V92QkYxYrTkiTQMc3pKq-32" target="V92QkYxYrTkiTQMc3pKq-33">
          <mxGeometry relative="1" as="geometry" />
        </mxCell>
        <mxCell id="V92QkYxYrTkiTQMc3pKq-31" value="" style="edgeStyle=orthogonalEdgeStyle;rounded=0;orthogonalLoop=1;jettySize=auto;html=1;" edge="1" parent="1" source="V92QkYxYrTkiTQMc3pKq-32" target="V92QkYxYrTkiTQMc3pKq-34">
          <mxGeometry relative="1" as="geometry" />
        </mxCell>
        <mxCell id="V92QkYxYrTkiTQMc3pKq-32" value="div" style="rounded=0;whiteSpace=wrap;html=1;" vertex="1" parent="1">
          <mxGeometry x="630" y="351" width="120" height="60" as="geometry" />
        </mxCell>
        <mxCell id="V92QkYxYrTkiTQMc3pKq-33" value="Label" style="rounded=0;whiteSpace=wrap;html=1;" vertex="1" parent="1">
          <mxGeometry x="530" y="490" width="120" height="60" as="geometry" />
        </mxCell>
        <mxCell id="V92QkYxYrTkiTQMc3pKq-34" value="Input" style="rounded=0;whiteSpace=wrap;html=1;" vertex="1" parent="1">
          <mxGeometry x="727" y="490" width="120" height="60" as="geometry" />
        </mxCell>
        <mxCell id="V92QkYxYrTkiTQMc3pKq-35" value="Label" style="rounded=0;whiteSpace=wrap;html=1;" vertex="1" parent="1">
          <mxGeometry x="950" y="490" width="120" height="60" as="geometry" />
        </mxCell>
        <mxCell id="V92QkYxYrTkiTQMc3pKq-42" value="" style="edgeStyle=orthogonalEdgeStyle;rounded=0;orthogonalLoop=1;jettySize=auto;html=1;" edge="1" parent="1" source="V92QkYxYrTkiTQMc3pKq-39" target="V92QkYxYrTkiTQMc3pKq-41">
          <mxGeometry relative="1" as="geometry" />
        </mxCell>
        <mxCell id="V92QkYxYrTkiTQMc3pKq-44" value="" style="edgeStyle=orthogonalEdgeStyle;rounded=0;orthogonalLoop=1;jettySize=auto;html=1;" edge="1" parent="1" source="V92QkYxYrTkiTQMc3pKq-39" target="V92QkYxYrTkiTQMc3pKq-43">
          <mxGeometry relative="1" as="geometry" />
        </mxCell>
        <mxCell id="V92QkYxYrTkiTQMc3pKq-39" value="div" style="rounded=0;whiteSpace=wrap;html=1;" vertex="1" parent="1">
          <mxGeometry x="1190" y="490" width="120" height="60" as="geometry" />
        </mxCell>
        <mxCell id="V92QkYxYrTkiTQMc3pKq-41" value="input" style="rounded=0;whiteSpace=wrap;html=1;" vertex="1" parent="1">
          <mxGeometry x="1070" y="630" width="120" height="60" as="geometry" />
        </mxCell>
        <mxCell id="V92QkYxYrTkiTQMc3pKq-43" value="Button" style="rounded=0;whiteSpace=wrap;html=1;" vertex="1" parent="1">
          <mxGeometry x="1310" y="630" width="120" height="60" as="geometry" />
        </mxCell>
      </root>
    </mxGraphModel>
  </diagram>
  <diagram id="bEq-icWB-PNif8ZtOK-y" name="LO02_FIR">
    <mxGraphModel dx="976" dy="664" grid="1" gridSize="10" guides="1" tooltips="1" connect="1" arrows="1" fold="1" page="1" pageScale="1" pageWidth="827" pageHeight="1169" math="0" shadow="0">
      <root>
        <mxCell id="0" />
        <mxCell id="1" parent="0" />
        <mxCell id="-kSHor6Ow0wJsxH8Yrb_-15" style="edgeStyle=orthogonalEdgeStyle;rounded=0;orthogonalLoop=1;jettySize=auto;html=1;exitX=0.5;exitY=1;exitDx=0;exitDy=0;" edge="1" parent="1" source="-kSHor6Ow0wJsxH8Yrb_-1" target="-kSHor6Ow0wJsxH8Yrb_-2">
          <mxGeometry relative="1" as="geometry" />
        </mxCell>
        <mxCell id="-kSHor6Ow0wJsxH8Yrb_-1" value="div" style="rounded=0;whiteSpace=wrap;html=1;" vertex="1" parent="1">
          <mxGeometry x="354" y="80" width="120" height="60" as="geometry" />
        </mxCell>
        <mxCell id="-kSHor6Ow0wJsxH8Yrb_-11" value="" style="edgeStyle=orthogonalEdgeStyle;rounded=0;orthogonalLoop=1;jettySize=auto;html=1;" edge="1" parent="1" source="-kSHor6Ow0wJsxH8Yrb_-2" target="-kSHor6Ow0wJsxH8Yrb_-10">
          <mxGeometry relative="1" as="geometry" />
        </mxCell>
        <mxCell id="-kSHor6Ow0wJsxH8Yrb_-13" value="" style="edgeStyle=orthogonalEdgeStyle;rounded=0;orthogonalLoop=1;jettySize=auto;html=1;" edge="1" parent="1" source="-kSHor6Ow0wJsxH8Yrb_-2" target="-kSHor6Ow0wJsxH8Yrb_-12">
          <mxGeometry relative="1" as="geometry" />
        </mxCell>
        <mxCell id="-kSHor6Ow0wJsxH8Yrb_-2" value="div" style="rounded=0;whiteSpace=wrap;html=1;" vertex="1" parent="1">
          <mxGeometry x="160" y="210" width="120" height="60" as="geometry" />
        </mxCell>
        <mxCell id="-kSHor6Ow0wJsxH8Yrb_-7" value="" style="edgeStyle=orthogonalEdgeStyle;rounded=0;orthogonalLoop=1;jettySize=auto;html=1;" edge="1" parent="1" source="-kSHor6Ow0wJsxH8Yrb_-4" target="-kSHor6Ow0wJsxH8Yrb_-6">
          <mxGeometry relative="1" as="geometry" />
        </mxCell>
        <mxCell id="-kSHor6Ow0wJsxH8Yrb_-9" value="" style="edgeStyle=orthogonalEdgeStyle;rounded=0;orthogonalLoop=1;jettySize=auto;html=1;" edge="1" parent="1" source="-kSHor6Ow0wJsxH8Yrb_-4" target="-kSHor6Ow0wJsxH8Yrb_-8">
          <mxGeometry relative="1" as="geometry" />
        </mxCell>
        <mxCell id="-kSHor6Ow0wJsxH8Yrb_-4" value="div" style="rounded=0;whiteSpace=wrap;html=1;" vertex="1" parent="1">
          <mxGeometry x="540" y="210" width="120" height="60" as="geometry" />
        </mxCell>
        <mxCell id="-kSHor6Ow0wJsxH8Yrb_-6" value="Button" style="rounded=0;whiteSpace=wrap;html=1;" vertex="1" parent="1">
          <mxGeometry x="440" y="350" width="120" height="60" as="geometry" />
        </mxCell>
        <mxCell id="-kSHor6Ow0wJsxH8Yrb_-8" value="Button" style="rounded=0;whiteSpace=wrap;html=1;" vertex="1" parent="1">
          <mxGeometry x="650" y="350" width="120" height="60" as="geometry" />
        </mxCell>
        <mxCell id="-kSHor6Ow0wJsxH8Yrb_-10" value="Span" style="rounded=0;whiteSpace=wrap;html=1;" vertex="1" parent="1">
          <mxGeometry x="70" y="350" width="120" height="60" as="geometry" />
        </mxCell>
        <mxCell id="-kSHor6Ow0wJsxH8Yrb_-12" value="Span" style="rounded=0;whiteSpace=wrap;html=1;" vertex="1" parent="1">
          <mxGeometry x="260" y="350" width="120" height="60" as="geometry" />
        </mxCell>
        <mxCell id="-kSHor6Ow0wJsxH8Yrb_-16" style="edgeStyle=orthogonalEdgeStyle;rounded=0;orthogonalLoop=1;jettySize=auto;html=1;exitX=0.5;exitY=1;exitDx=0;exitDy=0;entryX=0.5;entryY=0;entryDx=0;entryDy=0;" edge="1" parent="1" source="-kSHor6Ow0wJsxH8Yrb_-1" target="-kSHor6Ow0wJsxH8Yrb_-4">
          <mxGeometry relative="1" as="geometry" />
        </mxCell>
      </root>
    </mxGraphModel>
  </diagram>
  <diagram name="LO02_FP" id="EhZNrAsXWZ6QC95h2vOS">
    <mxGraphModel dx="3267" dy="1660" grid="1" gridSize="10" guides="1" tooltips="1" connect="1" arrows="1" fold="1" page="1" pageScale="1" pageWidth="827" pageHeight="1169" math="0" shadow="0">
      <root>
        <mxCell id="GKLRa_Q3nd3o8UgOx1Uq-0" />
        <mxCell id="GKLRa_Q3nd3o8UgOx1Uq-1" parent="GKLRa_Q3nd3o8UgOx1Uq-0" />
        <mxCell id="GKLRa_Q3nd3o8UgOx1Uq-2" value="" style="edgeStyle=orthogonalEdgeStyle;rounded=0;orthogonalLoop=1;jettySize=auto;html=1;exitX=0.5;exitY=1;exitDx=0;exitDy=0;" edge="1" parent="GKLRa_Q3nd3o8UgOx1Uq-1" source="GKLRa_Q3nd3o8UgOx1Uq-4" target="GKLRa_Q3nd3o8UgOx1Uq-5">
          <mxGeometry relative="1" as="geometry">
            <mxPoint x="200" y="120" as="sourcePoint" />
            <Array as="points">
              <mxPoint x="210" y="160" />
              <mxPoint x="-620" y="160" />
            </Array>
          </mxGeometry>
        </mxCell>
        <mxCell id="GKLRa_Q3nd3o8UgOx1Uq-3" value="" style="edgeStyle=orthogonalEdgeStyle;rounded=0;orthogonalLoop=1;jettySize=auto;html=1;" edge="1" parent="GKLRa_Q3nd3o8UgOx1Uq-1" source="GKLRa_Q3nd3o8UgOx1Uq-4" target="GKLRa_Q3nd3o8UgOx1Uq-10">
          <mxGeometry relative="1" as="geometry">
            <Array as="points">
              <mxPoint x="210" y="160" />
              <mxPoint x="590" y="160" />
            </Array>
          </mxGeometry>
        </mxCell>
        <mxCell id="GKLRa_Q3nd3o8UgOx1Uq-4" value="div" style="rounded=0;whiteSpace=wrap;html=1;" vertex="1" parent="GKLRa_Q3nd3o8UgOx1Uq-1">
          <mxGeometry x="150" y="50" width="120" height="60" as="geometry" />
        </mxCell>
        <mxCell id="GKLRa_Q3nd3o8UgOx1Uq-5" value="Title" style="rounded=0;whiteSpace=wrap;html=1;" vertex="1" parent="GKLRa_Q3nd3o8UgOx1Uq-1">
          <mxGeometry x="-680" y="220" width="120" height="60" as="geometry" />
        </mxCell>
        <mxCell id="GKLRa_Q3nd3o8UgOx1Uq-6" value="" style="edgeStyle=orthogonalEdgeStyle;rounded=0;orthogonalLoop=1;jettySize=auto;html=1;" edge="1" parent="GKLRa_Q3nd3o8UgOx1Uq-1" source="GKLRa_Q3nd3o8UgOx1Uq-10" target="GKLRa_Q3nd3o8UgOx1Uq-14">
          <mxGeometry relative="1" as="geometry">
            <Array as="points">
              <mxPoint x="590" y="320" />
              <mxPoint x="330" y="320" />
            </Array>
          </mxGeometry>
        </mxCell>
        <mxCell id="GKLRa_Q3nd3o8UgOx1Uq-7" value="" style="edgeStyle=orthogonalEdgeStyle;rounded=0;orthogonalLoop=1;jettySize=auto;html=1;" edge="1" parent="GKLRa_Q3nd3o8UgOx1Uq-1" source="GKLRa_Q3nd3o8UgOx1Uq-10" target="GKLRa_Q3nd3o8UgOx1Uq-15">
          <mxGeometry relative="1" as="geometry">
            <Array as="points">
              <mxPoint x="590" y="320" />
              <mxPoint x="1470" y="320" />
            </Array>
          </mxGeometry>
        </mxCell>
        <mxCell id="GKLRa_Q3nd3o8UgOx1Uq-8" value="" style="edgeStyle=orthogonalEdgeStyle;rounded=0;orthogonalLoop=1;jettySize=auto;html=1;entryX=0.5;entryY=0;entryDx=0;entryDy=0;" edge="1" parent="GKLRa_Q3nd3o8UgOx1Uq-1" source="GKLRa_Q3nd3o8UgOx1Uq-10" target="GKLRa_Q3nd3o8UgOx1Uq-24">
          <mxGeometry relative="1" as="geometry">
            <mxPoint x="490" y="350" as="targetPoint" />
            <Array as="points">
              <mxPoint x="590" y="320" />
              <mxPoint x="690" y="320" />
            </Array>
          </mxGeometry>
        </mxCell>
        <mxCell id="GKLRa_Q3nd3o8UgOx1Uq-9" value="" style="edgeStyle=orthogonalEdgeStyle;rounded=0;orthogonalLoop=1;jettySize=auto;html=1;" edge="1" parent="GKLRa_Q3nd3o8UgOx1Uq-1" target="GKLRa_Q3nd3o8UgOx1Uq-18">
          <mxGeometry relative="1" as="geometry">
            <mxPoint x="590" y="281" as="sourcePoint" />
            <Array as="points">
              <mxPoint x="590" y="320" />
              <mxPoint x="1140" y="320" />
            </Array>
          </mxGeometry>
        </mxCell>
        <mxCell id="uNBkMnTlJC4XNpQQUHam-8" style="edgeStyle=orthogonalEdgeStyle;rounded=0;orthogonalLoop=1;jettySize=auto;html=1;exitX=0.5;exitY=1;exitDx=0;exitDy=0;entryX=0.5;entryY=0;entryDx=0;entryDy=0;" edge="1" parent="GKLRa_Q3nd3o8UgOx1Uq-1" source="GKLRa_Q3nd3o8UgOx1Uq-10" target="uNBkMnTlJC4XNpQQUHam-4">
          <mxGeometry relative="1" as="geometry" />
        </mxCell>
        <mxCell id="GKLRa_Q3nd3o8UgOx1Uq-10" value="div" style="rounded=0;whiteSpace=wrap;html=1;" vertex="1" parent="GKLRa_Q3nd3o8UgOx1Uq-1">
          <mxGeometry x="530" y="220" width="120" height="60" as="geometry" />
        </mxCell>
        <mxCell id="GKLRa_Q3nd3o8UgOx1Uq-11" value="" style="edgeStyle=orthogonalEdgeStyle;rounded=0;orthogonalLoop=1;jettySize=auto;html=1;" edge="1" parent="GKLRa_Q3nd3o8UgOx1Uq-1" source="GKLRa_Q3nd3o8UgOx1Uq-14" target="GKLRa_Q3nd3o8UgOx1Uq-19">
          <mxGeometry relative="1" as="geometry" />
        </mxCell>
        <mxCell id="GKLRa_Q3nd3o8UgOx1Uq-12" value="" style="edgeStyle=orthogonalEdgeStyle;rounded=0;orthogonalLoop=1;jettySize=auto;html=1;" edge="1" parent="GKLRa_Q3nd3o8UgOx1Uq-1" source="GKLRa_Q3nd3o8UgOx1Uq-14" target="GKLRa_Q3nd3o8UgOx1Uq-19">
          <mxGeometry relative="1" as="geometry" />
        </mxCell>
        <mxCell id="GKLRa_Q3nd3o8UgOx1Uq-13" value="" style="edgeStyle=orthogonalEdgeStyle;rounded=0;orthogonalLoop=1;jettySize=auto;html=1;" edge="1" parent="GKLRa_Q3nd3o8UgOx1Uq-1" source="GKLRa_Q3nd3o8UgOx1Uq-14" target="GKLRa_Q3nd3o8UgOx1Uq-20">
          <mxGeometry relative="1" as="geometry" />
        </mxCell>
        <mxCell id="GKLRa_Q3nd3o8UgOx1Uq-14" value="div" style="rounded=0;whiteSpace=wrap;html=1;" vertex="1" parent="GKLRa_Q3nd3o8UgOx1Uq-1">
          <mxGeometry x="270" y="351" width="120" height="60" as="geometry" />
        </mxCell>
        <mxCell id="GKLRa_Q3nd3o8UgOx1Uq-15" value="Button" style="rounded=0;whiteSpace=wrap;html=1;" vertex="1" parent="GKLRa_Q3nd3o8UgOx1Uq-1">
          <mxGeometry x="1410" y="350" width="120" height="60" as="geometry" />
        </mxCell>
        <mxCell id="GKLRa_Q3nd3o8UgOx1Uq-16" value="" style="edgeStyle=orthogonalEdgeStyle;rounded=0;orthogonalLoop=1;jettySize=auto;html=1;" edge="1" parent="GKLRa_Q3nd3o8UgOx1Uq-1" target="GKLRa_Q3nd3o8UgOx1Uq-27">
          <mxGeometry relative="1" as="geometry">
            <mxPoint x="1140" y="450" as="sourcePoint" />
          </mxGeometry>
        </mxCell>
        <mxCell id="GKLRa_Q3nd3o8UgOx1Uq-17" value="" style="edgeStyle=orthogonalEdgeStyle;rounded=0;orthogonalLoop=1;jettySize=auto;html=1;" edge="1" parent="GKLRa_Q3nd3o8UgOx1Uq-1" source="GKLRa_Q3nd3o8UgOx1Uq-18" target="GKLRa_Q3nd3o8UgOx1Uq-30">
          <mxGeometry relative="1" as="geometry" />
        </mxCell>
        <mxCell id="GKLRa_Q3nd3o8UgOx1Uq-18" value="div" style="rounded=0;whiteSpace=wrap;html=1;" vertex="1" parent="GKLRa_Q3nd3o8UgOx1Uq-1">
          <mxGeometry x="1080" y="350" width="120" height="60" as="geometry" />
        </mxCell>
        <mxCell id="GKLRa_Q3nd3o8UgOx1Uq-19" value="Label" style="rounded=0;whiteSpace=wrap;html=1;" vertex="1" parent="GKLRa_Q3nd3o8UgOx1Uq-1">
          <mxGeometry x="170" y="490" width="120" height="60" as="geometry" />
        </mxCell>
        <mxCell id="GKLRa_Q3nd3o8UgOx1Uq-20" value="Input" style="rounded=0;whiteSpace=wrap;html=1;" vertex="1" parent="GKLRa_Q3nd3o8UgOx1Uq-1">
          <mxGeometry x="370" y="490" width="120" height="60" as="geometry" />
        </mxCell>
        <mxCell id="GKLRa_Q3nd3o8UgOx1Uq-21" value="" style="edgeStyle=orthogonalEdgeStyle;rounded=0;orthogonalLoop=1;jettySize=auto;html=1;" edge="1" parent="GKLRa_Q3nd3o8UgOx1Uq-1" source="GKLRa_Q3nd3o8UgOx1Uq-24" target="GKLRa_Q3nd3o8UgOx1Uq-25">
          <mxGeometry relative="1" as="geometry" />
        </mxCell>
        <mxCell id="GKLRa_Q3nd3o8UgOx1Uq-22" value="" style="edgeStyle=orthogonalEdgeStyle;rounded=0;orthogonalLoop=1;jettySize=auto;html=1;" edge="1" parent="GKLRa_Q3nd3o8UgOx1Uq-1" source="GKLRa_Q3nd3o8UgOx1Uq-24" target="GKLRa_Q3nd3o8UgOx1Uq-25">
          <mxGeometry relative="1" as="geometry" />
        </mxCell>
        <mxCell id="GKLRa_Q3nd3o8UgOx1Uq-23" value="" style="edgeStyle=orthogonalEdgeStyle;rounded=0;orthogonalLoop=1;jettySize=auto;html=1;" edge="1" parent="GKLRa_Q3nd3o8UgOx1Uq-1" source="GKLRa_Q3nd3o8UgOx1Uq-24" target="GKLRa_Q3nd3o8UgOx1Uq-26">
          <mxGeometry relative="1" as="geometry" />
        </mxCell>
        <mxCell id="GKLRa_Q3nd3o8UgOx1Uq-24" value="div" style="rounded=0;whiteSpace=wrap;html=1;" vertex="1" parent="GKLRa_Q3nd3o8UgOx1Uq-1">
          <mxGeometry x="630" y="351" width="120" height="60" as="geometry" />
        </mxCell>
        <mxCell id="GKLRa_Q3nd3o8UgOx1Uq-25" value="Label" style="rounded=0;whiteSpace=wrap;html=1;" vertex="1" parent="GKLRa_Q3nd3o8UgOx1Uq-1">
          <mxGeometry x="530" y="490" width="120" height="60" as="geometry" />
        </mxCell>
        <mxCell id="GKLRa_Q3nd3o8UgOx1Uq-26" value="Input" style="rounded=0;whiteSpace=wrap;html=1;" vertex="1" parent="GKLRa_Q3nd3o8UgOx1Uq-1">
          <mxGeometry x="727" y="490" width="120" height="60" as="geometry" />
        </mxCell>
        <mxCell id="GKLRa_Q3nd3o8UgOx1Uq-27" value="Label" style="rounded=0;whiteSpace=wrap;html=1;" vertex="1" parent="GKLRa_Q3nd3o8UgOx1Uq-1">
          <mxGeometry x="950" y="490" width="120" height="60" as="geometry" />
        </mxCell>
        <mxCell id="GKLRa_Q3nd3o8UgOx1Uq-28" value="" style="edgeStyle=orthogonalEdgeStyle;rounded=0;orthogonalLoop=1;jettySize=auto;html=1;" edge="1" parent="GKLRa_Q3nd3o8UgOx1Uq-1" source="GKLRa_Q3nd3o8UgOx1Uq-30" target="GKLRa_Q3nd3o8UgOx1Uq-31">
          <mxGeometry relative="1" as="geometry" />
        </mxCell>
        <mxCell id="GKLRa_Q3nd3o8UgOx1Uq-29" value="" style="edgeStyle=orthogonalEdgeStyle;rounded=0;orthogonalLoop=1;jettySize=auto;html=1;" edge="1" parent="GKLRa_Q3nd3o8UgOx1Uq-1" source="GKLRa_Q3nd3o8UgOx1Uq-30" target="GKLRa_Q3nd3o8UgOx1Uq-32">
          <mxGeometry relative="1" as="geometry" />
        </mxCell>
        <mxCell id="GKLRa_Q3nd3o8UgOx1Uq-30" value="div" style="rounded=0;whiteSpace=wrap;html=1;" vertex="1" parent="GKLRa_Q3nd3o8UgOx1Uq-1">
          <mxGeometry x="1190" y="490" width="120" height="60" as="geometry" />
        </mxCell>
        <mxCell id="GKLRa_Q3nd3o8UgOx1Uq-31" value="input" style="rounded=0;whiteSpace=wrap;html=1;" vertex="1" parent="GKLRa_Q3nd3o8UgOx1Uq-1">
          <mxGeometry x="1070" y="630" width="120" height="60" as="geometry" />
        </mxCell>
        <mxCell id="GKLRa_Q3nd3o8UgOx1Uq-32" value="Button" style="rounded=0;whiteSpace=wrap;html=1;" vertex="1" parent="GKLRa_Q3nd3o8UgOx1Uq-1">
          <mxGeometry x="1310" y="630" width="120" height="60" as="geometry" />
        </mxCell>
        <mxCell id="uNBkMnTlJC4XNpQQUHam-1" value="" style="edgeStyle=orthogonalEdgeStyle;rounded=0;orthogonalLoop=1;jettySize=auto;html=1;" edge="1" parent="GKLRa_Q3nd3o8UgOx1Uq-1" source="uNBkMnTlJC4XNpQQUHam-4" target="uNBkMnTlJC4XNpQQUHam-5">
          <mxGeometry relative="1" as="geometry" />
        </mxCell>
        <mxCell id="uNBkMnTlJC4XNpQQUHam-2" value="" style="edgeStyle=orthogonalEdgeStyle;rounded=0;orthogonalLoop=1;jettySize=auto;html=1;" edge="1" parent="GKLRa_Q3nd3o8UgOx1Uq-1" source="uNBkMnTlJC4XNpQQUHam-4" target="uNBkMnTlJC4XNpQQUHam-5">
          <mxGeometry relative="1" as="geometry" />
        </mxCell>
        <mxCell id="uNBkMnTlJC4XNpQQUHam-3" value="" style="edgeStyle=orthogonalEdgeStyle;rounded=0;orthogonalLoop=1;jettySize=auto;html=1;" edge="1" parent="GKLRa_Q3nd3o8UgOx1Uq-1" source="uNBkMnTlJC4XNpQQUHam-4" target="uNBkMnTlJC4XNpQQUHam-6">
          <mxGeometry relative="1" as="geometry" />
        </mxCell>
        <mxCell id="uNBkMnTlJC4XNpQQUHam-4" value="div" style="rounded=0;whiteSpace=wrap;html=1;" vertex="1" parent="GKLRa_Q3nd3o8UgOx1Uq-1">
          <mxGeometry x="-120" y="360" width="120" height="60" as="geometry" />
        </mxCell>
        <mxCell id="uNBkMnTlJC4XNpQQUHam-5" value="Label" style="rounded=0;whiteSpace=wrap;html=1;" vertex="1" parent="GKLRa_Q3nd3o8UgOx1Uq-1">
          <mxGeometry x="-220" y="492" width="120" height="60" as="geometry" />
        </mxCell>
        <mxCell id="uNBkMnTlJC4XNpQQUHam-6" value="Input" style="rounded=0;whiteSpace=wrap;html=1;" vertex="1" parent="GKLRa_Q3nd3o8UgOx1Uq-1">
          <mxGeometry x="-20" y="492" width="120" height="60" as="geometry" />
        </mxCell>
      </root>
    </mxGraphModel>
  </diagram>
  <diagram name="LO02_FPR" id="OOu3cl6yM11rcri-6u3v">
    <mxGraphModel dx="976" dy="664" grid="1" gridSize="10" guides="1" tooltips="1" connect="1" arrows="1" fold="1" page="1" pageScale="1" pageWidth="827" pageHeight="1169" math="0" shadow="0">
      <root>
        <mxCell id="7SWM7WnGAzSZcopaH9Ba-0" />
        <mxCell id="7SWM7WnGAzSZcopaH9Ba-1" parent="7SWM7WnGAzSZcopaH9Ba-0" />
        <mxCell id="7SWM7WnGAzSZcopaH9Ba-2" style="edgeStyle=orthogonalEdgeStyle;rounded=0;orthogonalLoop=1;jettySize=auto;html=1;exitX=0.5;exitY=1;exitDx=0;exitDy=0;" edge="1" parent="7SWM7WnGAzSZcopaH9Ba-1" source="7SWM7WnGAzSZcopaH9Ba-3" target="7SWM7WnGAzSZcopaH9Ba-6">
          <mxGeometry relative="1" as="geometry" />
        </mxCell>
        <mxCell id="7SWM7WnGAzSZcopaH9Ba-3" value="div" style="rounded=0;whiteSpace=wrap;html=1;" vertex="1" parent="7SWM7WnGAzSZcopaH9Ba-1">
          <mxGeometry x="354" y="80" width="120" height="60" as="geometry" />
        </mxCell>
        <mxCell id="7SWM7WnGAzSZcopaH9Ba-4" value="" style="edgeStyle=orthogonalEdgeStyle;rounded=0;orthogonalLoop=1;jettySize=auto;html=1;" edge="1" parent="7SWM7WnGAzSZcopaH9Ba-1" source="7SWM7WnGAzSZcopaH9Ba-6" target="7SWM7WnGAzSZcopaH9Ba-12">
          <mxGeometry relative="1" as="geometry" />
        </mxCell>
        <mxCell id="7SWM7WnGAzSZcopaH9Ba-5" value="" style="edgeStyle=orthogonalEdgeStyle;rounded=0;orthogonalLoop=1;jettySize=auto;html=1;" edge="1" parent="7SWM7WnGAzSZcopaH9Ba-1" source="7SWM7WnGAzSZcopaH9Ba-6" target="7SWM7WnGAzSZcopaH9Ba-13">
          <mxGeometry relative="1" as="geometry" />
        </mxCell>
        <mxCell id="7SWM7WnGAzSZcopaH9Ba-6" value="div" style="rounded=0;whiteSpace=wrap;html=1;" vertex="1" parent="7SWM7WnGAzSZcopaH9Ba-1">
          <mxGeometry x="160" y="210" width="120" height="60" as="geometry" />
        </mxCell>
        <mxCell id="7SWM7WnGAzSZcopaH9Ba-9" value="Button" style="rounded=0;whiteSpace=wrap;html=1;" vertex="1" parent="7SWM7WnGAzSZcopaH9Ba-1">
          <mxGeometry x="540" y="210" width="120" height="60" as="geometry" />
        </mxCell>
        <mxCell id="7SWM7WnGAzSZcopaH9Ba-12" value="Span" style="rounded=0;whiteSpace=wrap;html=1;" vertex="1" parent="7SWM7WnGAzSZcopaH9Ba-1">
          <mxGeometry x="70" y="350" width="120" height="60" as="geometry" />
        </mxCell>
        <mxCell id="7SWM7WnGAzSZcopaH9Ba-13" value="Span" style="rounded=0;whiteSpace=wrap;html=1;" vertex="1" parent="7SWM7WnGAzSZcopaH9Ba-1">
          <mxGeometry x="260" y="350" width="120" height="60" as="geometry" />
        </mxCell>
        <mxCell id="7SWM7WnGAzSZcopaH9Ba-14" style="edgeStyle=orthogonalEdgeStyle;rounded=0;orthogonalLoop=1;jettySize=auto;html=1;exitX=0.5;exitY=1;exitDx=0;exitDy=0;entryX=0.5;entryY=0;entryDx=0;entryDy=0;" edge="1" parent="7SWM7WnGAzSZcopaH9Ba-1" source="7SWM7WnGAzSZcopaH9Ba-3" target="7SWM7WnGAzSZcopaH9Ba-9">
          <mxGeometry relative="1" as="geometry" />
        </mxCell>
      </root>
    </mxGraphModel>
  </diagram>
</mxfile>
